<svg width="26" height="23" viewBox="0 0 26 23" fill="none" xmlns="http://www.w3.org/2000/svg">
<path d="M24.2356 16.1926H7.95237L8.76995 14.5273L22.3543 14.5027C22.8137 14.5027 23.2074 14.1746 23.2895 13.7207L25.1707 3.19062C25.2199 2.91445 25.1461 2.63008 24.9656 2.41406C24.8765 2.30775 24.7652 2.22211 24.6396 2.16309C24.514 2.10407 24.3771 2.07308 24.2383 2.07227L6.95706 2.01484L6.8094 1.32031C6.71643 0.877344 6.31721 0.554688 5.86331 0.554688H1.6387C1.3827 0.554688 1.13719 0.656381 0.956172 0.837398C0.775156 1.01841 0.673462 1.26393 0.673462 1.51992C0.673462 1.77592 0.775156 2.02143 0.956172 2.20245C1.13719 2.38346 1.3827 2.48516 1.6387 2.48516H5.08127L5.72659 5.55312L7.31526 13.2449L5.26995 16.5836C5.16373 16.727 5.09975 16.8972 5.08526 17.075C5.07076 17.2528 5.10632 17.4312 5.18791 17.5898C5.35198 17.9152 5.68284 18.1203 6.04924 18.1203H7.76643C7.40035 18.6065 7.20261 19.1988 7.20315 19.8074C7.20315 21.3551 8.46096 22.6129 10.0086 22.6129C11.5563 22.6129 12.8141 21.3551 12.8141 19.8074C12.8141 19.1977 12.6117 18.6043 12.2508 18.1203H16.6559C16.2898 18.6065 16.0921 19.1988 16.0926 19.8074C16.0926 21.3551 17.3504 22.6129 18.8981 22.6129C20.4457 22.6129 21.7035 21.3551 21.7035 19.8074C21.7035 19.1977 21.5012 18.6043 21.1403 18.1203H24.2383C24.7688 18.1203 25.2035 17.6883 25.2035 17.1551C25.202 16.8994 25.0993 16.6546 24.9179 16.4743C24.7366 16.294 24.4913 16.1927 24.2356 16.1926ZM7.35901 3.91797L23.1035 3.96992L21.5613 12.6051L9.19377 12.627L7.35901 3.91797ZM10.0086 20.6715C9.53284 20.6715 9.14456 20.2832 9.14456 19.8074C9.14456 19.3316 9.53284 18.9434 10.0086 18.9434C10.4844 18.9434 10.8727 19.3316 10.8727 19.8074C10.8727 20.0366 10.7816 20.2564 10.6196 20.4184C10.4576 20.5805 10.2378 20.6715 10.0086 20.6715ZM18.8981 20.6715C18.4223 20.6715 18.034 20.2832 18.034 19.8074C18.034 19.3316 18.4223 18.9434 18.8981 18.9434C19.3739 18.9434 19.7621 19.3316 19.7621 19.8074C19.7621 20.0366 19.6711 20.2564 19.5091 20.4184C19.347 20.5805 19.1272 20.6715 18.8981 20.6715Z" fill="black"/>
</svg>
