<svg width="24" height="20" viewBox="0 0 24 20" fill="none" xmlns="http://www.w3.org/2000/svg">
<path d="M21.3333 9.99999V4.16666H23.6667V11.1667H21.3333M21.3333 15.8333H23.6667V13.5H21.3333M9.66668 11.1667C12.7817 11.1667 19 12.73 19 15.8333V19.3333H0.333344V15.8333C0.333344 12.73 6.55168 11.1667 9.66668 11.1667ZM9.66668 0.666656C10.9044 0.666656 12.0913 1.15832 12.9665 2.03349C13.8417 2.90866 14.3333 4.09565 14.3333 5.33332C14.3333 6.571 13.8417 7.75799 12.9665 8.63315C12.0913 9.50832 10.9044 9.99999 9.66668 9.99999C8.429 9.99999 7.24202 9.50832 6.36685 8.63315C5.49168 7.75799 5.00001 6.571 5.00001 5.33332C5.00001 4.09565 5.49168 2.90866 6.36685 2.03349C7.24202 1.15832 8.429 0.666656 9.66668 0.666656ZM9.66668 13.3833C6.20168 13.3833 2.55001 15.0867 2.55001 15.8333V17.1167H16.7833V15.8333C16.7833 15.0867 13.1317 13.3833 9.66668 13.3833ZM9.66668 2.88332C9.0169 2.88332 8.39373 3.14145 7.93427 3.60091C7.4748 4.06038 7.21668 4.68354 7.21668 5.33332C7.21668 5.9831 7.4748 6.60627 7.93427 7.06573C8.39373 7.5252 9.0169 7.78332 9.66668 7.78332C10.3165 7.78332 10.9396 7.5252 11.3991 7.06573C11.8586 6.60627 12.1167 5.9831 12.1167 5.33332C12.1167 4.68354 11.8586 4.06038 11.3991 3.60091C10.9396 3.14145 10.3165 2.88332 9.66668 2.88332Z" fill="black"/>
</svg>
